<svg width="179" height="214" viewBox="0 0 179 214" fill="none" xmlns="http://www.w3.org/2000/svg">
<g clip-path="url(#clip0_699_116)">
<path d="M178.64 78.5999C178.56 62.0999 171.19 49.32 157.07 40.68C135 27.19 112.59 14.2299 90.69 0.449949C89.66 -0.200051 88.95 -0.130051 87.95 0.499949C66.31 14.0899 44.24 26.97 22.37 40.2C7.53999 49.17 0.0399866 62.3099 0.0199866 79.6299C-0.0100134 105.07 0.0199866 130.51 0.0199866 155.95C0.0199866 168 -0.0300134 180.05 0.0399866 192.09C0.0999866 202.92 8.75999 212.36 19.17 213.09C19.49 213.06 19.8 213 20.12 213C65.52 213 110.93 213.02 156.33 213.03C157.42 213.03 158.51 213.07 159.59 213.08C160.29 212.99 161 212.95 161.68 212.79C172.01 210.41 178.67 202.01 178.68 191.25C178.7 153.7 178.82 116.15 178.64 78.5899V78.5999Z" fill="#F1F2F2"/>
<path d="M113.59 102.91H149.25V147.81H134.41L134.43 152.43L134.44 154.9L134.48 160.9L130.75 158.59L129.21 157.65L125.78 155.52L125.05 155.08L120.99 152.57L120.68 152.37L116.83 150L115.57 149.22L113.3 147.81H69.0198V119.07L113.59 102.91Z" fill="#F9B215"/>
<path d="M134.48 162.83C134.13 162.83 133.78 162.74 133.46 162.54L112.75 149.74H69.0198C67.9498 149.74 67.0898 148.87 67.0898 147.81V119.06C67.0898 117.99 67.9598 117.13 69.0198 117.13C70.0798 117.13 70.9498 118 70.9498 119.06V145.87H113.3C113.66 145.87 114.01 145.97 114.31 146.15L132.53 157.41L132.48 147.81C132.48 147.3 132.68 146.8 133.04 146.44C133.4 146.08 133.9 145.87 134.41 145.87H147.31V104.83H113.59C112.52 104.83 111.66 103.96 111.66 102.9C111.66 101.84 112.53 100.97 113.59 100.97H149.24C150.31 100.97 151.17 101.84 151.17 102.9V147.8C151.17 148.87 150.3 149.73 149.24 149.73H136.35L136.41 160.87C136.41 161.57 136.04 162.22 135.43 162.57C135.13 162.73 134.81 162.81 134.48 162.81V162.83Z" fill="#231F20"/>
<path d="M33.3599 73.9801V118.88H48.1999L48.1299 131.97L69.3099 118.88H113.59V73.9801H33.3599Z" fill="#F1F2F2"/>
<path d="M48.1299 133.9C47.7999 133.9 47.4799 133.82 47.1899 133.66C46.5699 133.31 46.1999 132.67 46.1999 131.96L46.2599 120.81H33.3599C32.2899 120.81 31.4299 119.94 31.4299 118.88V73.98C31.4299 72.91 32.2999 72.05 33.3599 72.05H113.59C114.66 72.05 115.52 72.92 115.52 73.98V118.88C115.52 119.95 114.65 120.81 113.59 120.81H69.8499L49.1399 133.61C48.8299 133.81 48.4799 133.9 48.1199 133.9H48.1299ZM35.2899 116.95H48.1999C48.7099 116.95 49.2099 117.16 49.5699 117.52C49.9299 117.89 50.1399 118.38 50.1299 118.89L50.0799 128.49L68.2899 117.23C68.5999 117.04 68.9499 116.94 69.3099 116.94H111.66V75.9H35.2899V116.94V116.95Z" fill="#231F20"/>
</g>
<defs>
<clipPath id="clip0_699_116">
<rect width="178.74" height="213.1" fill="white"/>
</clipPath>
</defs>
</svg>
