<svg width="179" height="214" viewBox="0 0 179 214" fill="none" xmlns="http://www.w3.org/2000/svg">
<g clip-path="url(#clip0_699_53)">
<path d="M178.64 78.5999C178.56 62.0999 171.19 49.32 157.07 40.68C135 27.19 112.59 14.2299 90.69 0.449949C89.66 -0.200051 88.95 -0.130051 87.95 0.499949C66.31 14.0899 44.24 26.97 22.37 40.2C7.53999 49.17 0.0399866 62.3099 0.0199866 79.6299C-0.0100134 105.07 0.0199866 130.51 0.0199866 155.95C0.0199866 168 -0.0300134 180.05 0.0399866 192.09C0.0999866 202.92 8.75999 212.36 19.17 213.09C19.49 213.06 19.8 213 20.12 213C65.52 213 110.93 213.02 156.33 213.03C157.42 213.03 158.51 213.07 159.59 213.08C160.29 212.99 161 212.95 161.68 212.79C172.01 210.41 178.67 202.01 178.68 191.25C178.7 153.7 178.82 116.15 178.64 78.5899V78.5999Z" fill="#F1F2F2"/>
<path d="M58.15 88.2601C58.15 70.5701 72.49 56.2301 90.18 56.2301C107.87 56.2301 122.21 70.5701 122.21 88.2601C122.21 93.7701 120.85 98.9701 118.4 103.49L110.17 116.71L107.45 135.15H72.91L69.74 116.71L61.99 103.47C59.54 98.9401 58.15 93.7601 58.15 88.2501V88.2601Z" fill="#F1F2F2"/>
<path d="M107.46 137.09H72.92C71.98 137.09 71.17 136.42 71.01 135.49L67.91 117.39L60.34 104.46C57.64 99.47 56.23 93.8901 56.23 88.2601C56.23 69.5301 71.46 54.3 90.19 54.3C108.92 54.3 124.15 69.5301 124.15 88.2601C124.15 93.9401 122.75 99.53 120.11 104.42L112.03 117.4L109.38 135.45C109.24 136.4 108.43 137.1 107.47 137.1L107.46 137.09ZM74.54 133.23H105.79L108.26 116.43C108.3 116.17 108.39 115.92 108.53 115.69L116.76 102.47C119.04 98.25 120.28 93.3001 120.28 88.2601C120.28 71.6701 106.78 58.17 90.18 58.17C73.58 58.17 60.08 71.6701 60.08 88.2601C60.08 93.2501 61.33 98.2 63.69 102.56L71.41 115.74C71.53 115.94 71.61 116.16 71.65 116.39L74.53 133.23H74.54Z" fill="#231F20"/>
<path d="M79.33 101.4L90.21 135.64L99.41 101.4H79.33Z" fill="#F1F2F2"/>
<path d="M90.21 137.57C89.37 137.57 88.63 137.03 88.37 136.23L77.49 102C77.3 101.41 77.41 100.77 77.77 100.27C78.13 99.7701 78.71 99.4801 79.33 99.4801H99.41C100.01 99.4801 100.58 99.7601 100.95 100.23C101.31 100.71 101.44 101.33 101.28 101.91L92.09 136.14C91.87 136.97 91.12 137.55 90.27 137.57H90.23H90.21ZM81.97 103.34L90.06 128.77L96.89 103.34H81.97Z" fill="#231F20"/>
<path d="M107.45 135.16H72.74V156.04H107.45V135.16Z" fill="#F9B215"/>
<path d="M107.46 157.97H72.7399C71.6699 157.97 70.8099 157.1 70.8099 156.04V135.17C70.8099 134.1 71.6799 133.24 72.7399 133.24H107.46C108.53 133.24 109.39 134.11 109.39 135.17V156.04C109.39 157.11 108.52 157.97 107.46 157.97ZM74.6799 154.11H105.53V137.1H74.6799V154.11Z" fill="#231F20"/>
</g>
<defs>
<clipPath id="clip0_699_53">
<rect width="178.74" height="213.1" fill="white"/>
</clipPath>
</defs>
</svg>
