<svg width="179" height="214" viewBox="0 0 179 214" fill="none" xmlns="http://www.w3.org/2000/svg">
<g clip-path="url(#clip0_699_65)">
<path d="M178.64 78.5999C178.56 62.0999 171.19 49.32 157.07 40.68C135 27.19 112.59 14.2299 90.69 0.449949C89.66 -0.200051 88.95 -0.130051 87.95 0.499949C66.31 14.0899 44.24 26.97 22.37 40.2C7.53999 49.17 0.0399866 62.3099 0.0199866 79.6299C-0.0100134 105.07 0.0199866 130.51 0.0199866 155.95C0.0199866 168 -0.0300134 180.05 0.0399866 192.09C0.0999866 202.92 8.75999 212.36 19.17 213.09C19.49 213.06 19.8 213 20.12 213C65.52 213 110.93 213.02 156.33 213.03C157.42 213.03 158.51 213.07 159.59 213.08C160.29 212.99 161 212.95 161.68 212.79C172.01 210.41 178.67 202.01 178.68 191.25C178.7 153.7 178.82 116.15 178.64 78.5899V78.5999Z" fill="#F1F2F2"/>
<path d="M27.9401 88.46H68.4201V150.33H27.9401C27.7401 150.33 27.5801 150.17 27.5801 149.97V88.83C27.5801 88.63 27.7401 88.47 27.9401 88.47V88.46Z" fill="#F9B215"/>
<path d="M68.42 152.26H31.22C28.15 152.26 25.65 149.76 25.65 146.69V92.0899C25.65 89.0199 28.15 86.5299 31.22 86.5299H68.42C69.49 86.5299 70.35 87.3999 70.35 88.4599V150.33C70.35 151.4 69.48 152.26 68.42 152.26ZM31.22 90.3899C30.28 90.3899 29.51 91.1499 29.51 92.0899V146.69C29.51 147.63 30.28 148.4 31.22 148.4H66.49V90.3999H31.22V90.3899Z" fill="#231F20"/>
<path d="M51 82.23H60.59C64.91 82.23 68.42 85.74 68.42 90.06V148.48C68.42 152.8 64.91 156.31 60.59 156.31H51C46.68 156.31 43.17 152.8 43.17 148.48V90.06C43.17 85.74 46.68 82.23 51 82.23Z" fill="#F1F2F2"/>
<path d="M60.59 158.24H51C45.62 158.24 41.24 153.86 41.24 148.48V90.0599C41.24 84.6799 45.62 80.2999 51 80.2999H60.59C65.97 80.2999 70.35 84.6799 70.35 90.0599V148.48C70.35 153.86 65.97 158.24 60.59 158.24ZM51 84.1599C47.75 84.1599 45.1 86.7999 45.1 90.0599V148.48C45.1 151.73 47.75 154.38 51 154.38H60.59C63.84 154.38 66.49 151.73 66.49 148.48V90.0599C66.49 86.8099 63.84 84.1599 60.59 84.1599H51Z" fill="#231F20"/>
<path d="M99.19 93.7599C99.19 93.7599 117.34 45.7299 95.23 57.9599C95.23 78.4799 68.42 93.7599 68.42 93.7599V146.34H128.72C132.19 146.34 135.17 143.87 135.82 140.46L143.08 102.34C143.48 100.22 142.92 98.0399 141.55 96.3799C140.18 94.7199 138.13 93.7599 135.98 93.7599H99.2H99.19Z" fill="#F1F2F2"/>
<path d="M128.72 148.26H68.42C67.35 148.26 66.49 147.39 66.49 146.33V93.75C66.49 93.06 66.86 92.42 67.46 92.07C67.72 91.92 93.3 77.09 93.3 57.95C93.3 57.25 93.68 56.6 94.3 56.26C99.14 53.59 102.85 53.31 105.34 55.46C111.95 61.18 105.04 83.15 101.96 91.82H135.98C138.72 91.82 141.29 93.03 143.04 95.14C144.79 97.26 145.5 100.01 144.98 102.7L137.72 140.81C136.9 145.13 133.11 148.26 128.72 148.26ZM70.35 144.4H128.72C131.26 144.4 133.44 142.59 133.92 140.09L141.18 101.97C141.48 100.41 141.07 98.83 140.06 97.6C139.05 96.38 137.56 95.68 135.98 95.68H99.2C98.56 95.68 97.97 95.37 97.61 94.85C97.25 94.33 97.17 93.66 97.39 93.07C102.05 80.75 106.8 61.84 102.81 58.39C101.57 57.32 99.02 58.22 97.14 59.14C96.28 77.9 75.25 91.85 70.36 94.85V144.4H70.35Z" fill="#231F20"/>
<path d="M61.42 140.7C61.42 143.81 58.9 146.33 55.79 146.33C52.68 146.33 50.16 143.81 50.16 140.7C50.16 137.59 52.68 135.07 55.79 135.07C58.9 135.07 61.42 137.59 61.42 140.7Z" fill="#F1F2F2"/>
<path d="M55.8 148.26C51.63 148.26 48.24 144.87 48.24 140.7C48.24 136.53 51.63 133.14 55.8 133.14C59.97 133.14 63.35 136.53 63.35 140.7C63.35 144.87 59.96 148.26 55.8 148.26ZM55.8 137C53.76 137 52.1 138.66 52.1 140.7C52.1 142.74 53.76 144.4 55.8 144.4C57.84 144.4 59.49 142.74 59.49 140.7C59.49 138.66 57.83 137 55.8 137Z" fill="#231F20"/>
</g>
<defs>
<clipPath id="clip0_699_65">
<rect width="178.74" height="213.1" fill="white"/>
</clipPath>
</defs>
</svg>
