<svg width="179" height="214" viewBox="0 0 179 214" fill="none" xmlns="http://www.w3.org/2000/svg">
<g clip-path="url(#clip0_699_92)">
<path d="M178.64 78.5999C178.56 62.0999 171.19 49.32 157.07 40.68C135 27.19 112.59 14.2299 90.69 0.449949C89.66 -0.200051 88.95 -0.130051 87.95 0.499949C66.31 14.0899 44.24 26.97 22.37 40.2C7.53999 49.17 0.0399866 62.3099 0.0199866 79.6299C-0.0100134 105.07 0.0199866 130.51 0.0199866 155.95C0.0199866 168 -0.0300134 180.05 0.0399866 192.09C0.0999866 202.92 8.75999 212.36 19.17 213.09C19.49 213.06 19.8 213 20.12 213C65.52 213 110.93 213.02 156.33 213.03C157.42 213.03 158.51 213.07 159.59 213.08C160.29 212.99 161 212.95 161.68 212.79C172.01 210.41 178.67 202.01 178.68 191.25C178.7 153.7 178.82 116.15 178.64 78.5899V78.5999Z" fill="#F1F2F2"/>
<path d="M46.5998 106.31C57.6621 106.31 66.6298 97.3424 66.6298 86.2801C66.6298 75.2179 57.6621 66.2501 46.5998 66.2501C35.5376 66.2501 26.5698 75.2179 26.5698 86.2801C26.5698 97.3424 35.5376 106.31 46.5998 106.31Z" fill="#F1F2F2"/>
<path d="M46.5999 108.24C34.4899 108.24 24.6399 98.3901 24.6399 86.2801C24.6399 74.1701 34.4899 64.3201 46.5999 64.3201C58.7099 64.3201 68.5599 74.1701 68.5599 86.2801C68.5599 98.3901 58.7099 108.24 46.5999 108.24ZM46.5999 68.1801C36.6199 68.1801 28.4999 76.3001 28.4999 86.2801C28.4999 96.2601 36.6199 104.38 46.5999 104.38C56.5799 104.38 64.6999 96.2601 64.6999 86.2801C64.6999 76.3001 56.5799 68.1801 46.5999 68.1801Z" fill="#231F20"/>
<path d="M67.0999 133.08H26.0999V127.04C26.0999 115.72 35.2799 106.54 46.5999 106.54C57.9199 106.54 67.0999 115.72 67.0999 127.04V133.08Z" fill="#F1F2F2"/>
<path d="M67.0999 135.02H26.1099C25.0399 135.02 24.1799 134.15 24.1799 133.09V127.05C24.1799 114.68 34.2399 104.62 46.6099 104.62C58.9799 104.62 69.0399 114.68 69.0399 127.05V133.09C69.0399 134.16 68.1699 135.02 67.1099 135.02H67.0999ZM28.0299 131.16H65.1699V127.05C65.1699 116.81 56.8399 108.48 46.5999 108.48C36.3599 108.48 28.0299 116.81 28.0299 127.05V131.16Z" fill="#231F20"/>
<path d="M132.14 106.31C143.202 106.31 152.17 97.3424 152.17 86.2801C152.17 75.2179 143.202 66.2501 132.14 66.2501C121.078 66.2501 112.11 75.2179 112.11 86.2801C112.11 97.3424 121.078 106.31 132.14 106.31Z" fill="#F1F2F2"/>
<path d="M132.14 108.24C120.03 108.24 110.18 98.3901 110.18 86.2801C110.18 74.1701 120.03 64.3201 132.14 64.3201C144.25 64.3201 154.1 74.1701 154.1 86.2801C154.1 98.3901 144.25 108.24 132.14 108.24ZM132.14 68.1801C122.16 68.1801 114.04 76.3001 114.04 86.2801C114.04 96.2601 122.16 104.38 132.14 104.38C142.12 104.38 150.24 96.2601 150.24 86.2801C150.24 76.3001 142.12 68.1801 132.14 68.1801Z" fill="#231F20"/>
<path d="M152.64 133.08H111.64V127.04C111.64 115.72 120.82 106.54 132.14 106.54C143.46 106.54 152.64 115.72 152.64 127.04V133.08Z" fill="#F1F2F2"/>
<path d="M152.64 135.02H111.64C110.57 135.02 109.71 134.15 109.71 133.09V127.05C109.71 114.68 119.77 104.62 132.14 104.62C144.51 104.62 154.57 114.68 154.57 127.05V133.09C154.57 134.16 153.7 135.02 152.64 135.02ZM113.57 131.16H150.71V127.05C150.71 116.81 142.38 108.48 132.14 108.48C121.9 108.48 113.57 116.81 113.57 127.05V131.16Z" fill="#231F20"/>
<path d="M115.9 91.1101C115.9 105.76 104.02 117.64 89.3701 117.64C74.7201 117.64 62.8401 105.76 62.8401 91.1101C62.8401 76.4601 74.7201 64.5801 89.3701 64.5801C104.02 64.5801 115.9 76.4601 115.9 91.1101Z" fill="#F1F2F2"/>
<path d="M89.3701 119.58C73.6701 119.58 60.9001 106.81 60.9001 91.11C60.9001 75.41 73.6701 62.65 89.3701 62.65C105.07 62.65 117.83 75.42 117.83 91.11C117.83 106.8 105.06 119.58 89.3701 119.58ZM89.3701 66.51C75.8001 66.51 64.7701 77.55 64.7701 91.11C64.7701 104.67 75.8101 115.71 89.3701 115.71C102.93 115.71 113.97 104.67 113.97 91.11C113.97 77.55 102.93 66.51 89.3701 66.51Z" fill="#231F20"/>
<path d="M116.53 153.11H62.22V145.11C62.22 130.11 74.38 117.96 89.37 117.96C104.37 117.96 116.52 130.12 116.52 145.11V153.11H116.53Z" fill="#F9B215"/>
<path d="M116.52 155.04H62.22C61.15 155.04 60.29 154.17 60.29 153.11V145.11C60.29 129.07 73.34 116.03 89.38 116.03C105.42 116.03 118.46 129.07 118.46 145.11V153.11C118.46 154.18 117.59 155.04 116.53 155.04H116.52ZM64.14 151.18H114.59V145.11C114.59 131.2 103.28 119.89 89.37 119.89C75.46 119.89 64.14 131.2 64.14 145.11V151.18Z" fill="#231F20"/>
</g>
<defs>
<clipPath id="clip0_699_92">
<rect width="178.74" height="213.1" fill="white"/>
</clipPath>
</defs>
</svg>
