<svg width="179" height="214" viewBox="0 0 179 214" fill="none" xmlns="http://www.w3.org/2000/svg">
<g clip-path="url(#clip0_699_80)">
<path d="M178.64 78.5999C178.56 62.0999 171.19 49.32 157.07 40.68C135 27.19 112.59 14.2299 90.69 0.449949C89.66 -0.200051 88.95 -0.130051 87.95 0.499949C66.31 14.0899 44.24 26.97 22.37 40.2C7.53999 49.17 0.0399866 62.3099 0.0199866 79.6299C-0.0100134 105.07 0.0199866 130.51 0.0199866 155.95C0.0199866 168 -0.0300134 180.05 0.0399866 192.09C0.0999866 202.92 8.75999 212.36 19.17 213.09C19.49 213.06 19.8 213 20.12 213C65.52 213 110.93 213.02 156.33 213.03C157.42 213.03 158.51 213.07 159.59 213.08C160.29 212.99 161 212.95 161.68 212.79C172.01 210.41 178.67 202.01 178.68 191.25C178.7 153.7 178.82 116.15 178.64 78.5899V78.5999Z" fill="#F1F2F2"/>
<path d="M91.2998 160.35C121.239 160.35 145.51 136.079 145.51 106.14C145.51 76.2006 121.239 51.9299 91.2998 51.9299C61.3605 51.9299 37.0898 76.2006 37.0898 106.14C37.0898 136.079 61.3605 160.35 91.2998 160.35Z" fill="#F9B215"/>
<path d="M91.2999 162.28C60.3399 162.28 35.1599 137.09 35.1599 106.14C35.1599 75.19 60.3499 49.99 91.2999 49.99C122.25 49.99 147.44 75.18 147.44 106.14C147.44 137.1 122.25 162.28 91.2999 162.28ZM91.2999 53.85C62.4799 53.85 39.0199 77.31 39.0199 106.13C39.0199 134.95 62.4799 158.41 91.2999 158.41C120.12 158.41 143.58 134.95 143.58 106.13C143.58 77.31 120.12 53.85 91.2999 53.85Z" fill="#231F20"/>
<path d="M132.83 106.14C132.83 129.08 114.23 147.67 91.2998 147.67C68.3698 147.67 49.7698 129.07 49.7698 106.14C49.7698 83.2101 68.3598 64.6101 91.2998 64.6101C114.24 64.6101 132.83 83.2001 132.83 106.14Z" fill="#F1F2F2"/>
<path d="M91.2998 149.6C67.3298 149.6 47.8398 130.11 47.8398 106.14C47.8398 82.17 67.3298 62.67 91.2998 62.67C115.27 62.67 134.77 82.17 134.77 106.14C134.77 130.11 115.27 149.6 91.2998 149.6ZM91.2998 66.53C69.4598 66.53 51.6998 84.3 51.6998 106.14C51.6998 127.98 69.4598 145.74 91.2998 145.74C113.14 145.74 130.91 127.98 130.91 106.14C130.91 84.3 113.14 66.53 91.2998 66.53Z" fill="#231F20"/>
<path d="M119.51 118.86L91.2998 106.14V85.67L119.51 118.86Z" fill="#F1F2F2"/>
<path d="M119.51 120.79C119.24 120.79 118.97 120.74 118.72 120.62L90.5099 107.9C89.8199 107.59 89.3699 106.9 89.3699 106.14V85.67C89.3699 84.6 90.2399 83.74 91.2999 83.74C92.3599 83.74 93.2299 84.61 93.2299 85.67V104.89L120.3 117.1C121.27 117.54 121.71 118.68 121.27 119.65C120.95 120.37 120.24 120.79 119.51 120.79Z" fill="#231F20"/>
</g>
<defs>
<clipPath id="clip0_699_80">
<rect width="178.74" height="213.1" fill="white"/>
</clipPath>
</defs>
</svg>
